<svg width="188" height="95" xmlns="http://www.w3.org/2000/svg" xmlns:xlink="http://www.w3.org/1999/xlink" xml:space="preserve" overflow="hidden"><defs><clipPath id="clip0"><rect x="92" y="61" width="188" height="95"/></clipPath><clipPath id="clip1"><rect x="93" y="62" width="187" height="94"/></clipPath><clipPath id="clip2"><rect x="93" y="62" width="187" height="94"/></clipPath></defs><g clip-path="url(#clip0)" transform="translate(-92 -61)"><g clip-path="url(#clip1)"><g clip-path="url(#clip2)"><path d="M269.712 95.3519 269.712 102.248 268.496 102.308 268.496 95.5612 265.088 93.6776C264.669 94.4649 264.251 95.3419 263.762 96.179 263.221 97.1855 262.274 97.9113 261.161 98.1722 260.869 98.3141 260.665 98.5892 260.613 98.9096 260.543 99.966 260.613 101.022 260.613 102.158L259.477 102.258 259.477 98.2918C257.288 97.8141 255.526 96.1962 254.863 94.0563 254.629 92.9193 254.532 91.7583 254.574 90.5982 254.574 89.9704 254.395 89.3525 254.295 88.7048L251.933 89.4821 251.933 93.2591C251.933 95.9897 251.933 98.7203 251.933 101.441 251.933 102.248 251.644 102.438 250.777 102.198L250.777 99.7667C250.777 96.7072 250.777 93.6378 250.777 90.5683 250.777 89.6415 250.578 89.1233 249.432 89.1333L249.432 102.388 39.6934 102.388 39.6934 93.877C39.0081 94.0621 38.341 94.3089 37.7003 94.6144 37.4222 94.8698 37.2694 95.2337 37.2817 95.611 37.2817 97.7935 37.2817 99.9859 37.2817 102.228L36.0858 102.228 36.0858 94.7938 32.9466 93.4684C31.6112 95.3818 30.525 97.6041 27.8641 98.3117L27.8641 102.208 26.8675 102.318C26.7939 102.207 26.7368 102.086 26.6981 101.959 26.6681 101.544 26.6681 101.128 26.6981 100.713 27.0049 99.3708 26.3547 97.9922 25.1235 97.3749 22.9211 96.1292 22.3232 93.6776 21.6854 91.3855 21.3701 90.1375 21.1699 88.8632 21.0874 87.5786 21.0276 86.881 20.6689 85.9941 21.8249 85.5855 22.0342 85.5058 21.9744 84.4594 21.8947 83.8813 21.7252 82.6157 21.3764 81.36 21.2768 80.0844 21.353 79.5032 21.539 78.9418 21.8249 78.4301L22.1637 78.5298C22.094 77.8621 21.7551 77.0548 22.0043 76.5366 22.4878 75.692 22.6538 74.7025 22.4727 73.7462 22.4621 73.6694 22.4879 73.592 22.5424 73.5369 23.7981 72.7596 23.1105 71.6235 23.1005 70.607 23.1005 69.2318 23.1005 67.8465 23.1005 66.4713 23.1005 66.262 23.2002 65.9032 23.3098 65.8733 24.4857 65.5743 24.0672 64.6276 24.2366 63.8802 24.5139 62.9524 24.8672 62.0491 25.293 61.1795 25.3761 60.9783 25.4461 60.7719 25.5022 60.5616 25.5534 60.3803 25.5703 60.191 25.5521 60.0035 24.994 56.1568 26.2796 52.4794 26.6284 48.7223 26.6443 48.1939 26.7009 47.6675 26.7978 47.1478 26.916 46.901 27.1461 46.7265 27.4157 46.6794 27.5352 46.6794 27.8442 46.9783 27.8741 47.1677 28.1133 48.7622 28.2926 50.3667 28.5219 51.9712 28.7511 53.5756 29.05 55.3495 29.349 57.0337 29.5384 58.12 29.7975 59.1863 30.0865 60.5417 30.7342 59.6747 30.0865 58.3691 31.671 58.5485 31.4318 56.4657 31.1827 54.5622 31.0232 52.5691 31.0518 52.0176 31.1626 51.4734 31.3521 50.9547 31.4139 50.822 31.4671 50.6855 31.5116 50.5461 31.8305 48.5529 32.1593 46.5598 32.4483 44.5666 32.558 43.7694 32.6576 43.0419 33.4449 43.1116 34.1824 40.5903 34.9298 38.1886 35.5875 35.7669 35.81 34.781 35.9731 33.7826 36.0759 32.7772 36.0822 32.3639 36.1357 31.9526 36.2353 31.5514 36.3549 31.2325 36.6937 31.0033 36.9329 30.7342 37.1408 30.999 37.3056 31.295 37.4212 31.6112 37.4512 32.1024 37.4512 32.595 37.4212 33.0861 37.4212 33.3054 37.4212 33.6741 37.5408 33.7339 38.8264 34.3418 38.368 35.4679 38.4577 36.4845 38.6271 38.348 38.5474 40.381 39.2948 42.0154 40.2316 44.0086 39.5639 46.2309 40.5704 48.1443 41.1484 46.4302 41.8659 44.6663 42.3144 42.8226 42.6433 41.4673 43.311 41.2082 44.5866 41.2182 58.1499 41.268 71.7132 41.2182 85.2666 41.2182L86.7016 41.2182 86.7016 31.6212 84.7882 31.6212C84.9477 31.1927 85.0374 30.8738 85.1769 30.5748 86.6618 27.3459 88.1666 24.1369 89.6316 20.8881 89.8213 20.2736 90.4302 19.8888 91.0666 19.9812 99.2518 20.0211 107.434 20.041 115.612 20.041L117.157 20.041C117.021 19.1025 117.021 18.1493 117.157 17.2108 117.536 16.0548 115.871 15.9053 116.31 14.809L121.91 14.809C121.562 15.2974 121.342 15.5764 121.143 15.8853 120.972 16.0773 120.855 16.3112 120.804 16.563 120.804 17.6592 120.804 18.7555 120.804 20.041L122.269 20.041C147.343 20.041 172.417 20.041 197.49 20.041 198.313 19.9326 199.098 20.4149 199.374 21.1971 200.869 24.416 202.463 27.595 204.018 30.794 204.128 31.0232 204.217 31.2624 204.357 31.6013L202.364 31.6013 202.364 41.1185 232.998 41.1185 232.998 36.8731 231.772 36.7834 231.683 35.7868 239.177 35.7868 239.257 36.7834 237.991 36.9229 237.991 41.2281 241.3 41.2281C242.625 41.2281 243.951 41.2281 245.286 41.2281 246.113 41.2281 246.552 41.4374 246.701 42.2247 246.804 42.7735 247.056 43.2836 247.429 43.6996 247.488 42.7031 247.209 41.3776 247.708 40.6202 248.206 39.8628 247.548 38.1786 249.202 38.1288 249.202 36.1855 249.202 34.292 249.202 32.4085 249.121 31.5181 249.178 30.6205 249.372 29.7476 249.868 27.6374 250.224 25.4967 250.438 23.3397 250.657 21.8448 250.777 20.35 251.006 18.8352 251.066 18.5063 251.425 18.2273 251.654 17.9283 251.897 18.2119 252.096 18.5312 252.242 18.875 252.296 19.3248 252.319 19.7776 252.312 20.2304 252.76 23.8978 253.139 27.5851 253.717 31.1927 254.073 32.7538 254.536 34.2888 255.102 35.7868 255.15 36.007 255.183 36.23 255.202 36.4546 255.421 37.8498 254.913 39.3247 256.049 40.6202 256.507 41.1384 256.338 42.2147 256.467 43.1116 257.574 42.8924 257.763 43.6199 257.843 44.4869 258.201 48.3436 258.58 52.2004 259.118 56.1169 259.301 55.619 259.451 55.1097 259.567 54.5921 259.866 52.7584 260.095 50.9048 260.414 49.0711 260.474 48.7323 260.803 48.4433 261.012 48.1344 261.241 48.4632 261.64 48.7821 261.67 49.1309 261.849 50.7454 261.909 52.3798 262.048 53.9942 262.208 55.8478 262.397 57.6915 262.586 59.6348 264.121 59.4953 263.583 60.9702 263.882 61.8173L264.201 61.8173C264.201 60.3523 264.121 58.8276 264.201 57.4124 264.227 56.1664 264.435 54.9309 264.819 53.7451 265.56 52.0765 265.989 50.2864 266.084 48.4632 266.084 47.7457 266.642 47.078 266.732 46.3605 267.001 44.4371 267.151 42.4838 267.36 40.5505 267.36 40.2914 267.36 39.8927 267.549 39.803 268.546 39.235 268.247 38.2683 268.357 37.4013 268.474 37.0391 268.656 36.7013 268.895 36.4047 269.104 36.7037 269.443 36.9728 269.513 37.3016 269.891 39.0656 270.16 40.8395 270.509 42.5934 270.858 44.3474 271.326 45.8423 271.745 47.4567 271.745 47.5962 271.845 47.8354 271.904 47.8354 273.19 47.9749 272.901 49.0313 272.901 49.7687 272.927 51.7303 273.372 53.6636 274.206 55.4392 274.282 55.73 274.282 56.0354 274.206 56.3262 274.08 57.8343 273.941 59.3391 273.788 60.8406 273.683 61.3425 273.872 61.8603 274.276 62.176 274.849 62.9551 275.128 63.9118 275.063 64.8767 275.063 66.7702 274.864 68.6537 274.745 70.5472 274.675 71.6036 274.745 72.5404 275.881 73.1383 276.07 73.238 276.16 73.7861 276.11 74.1349 275.911 75.7493 275.632 77.3538 275.392 78.9583 275.323 79.4566 275.103 79.9549 275.861 80.2638 276.03 80.3236 276.16 80.782 276.14 81.0511 276.04 83.2834 276.01 85.5157 275.741 87.7281 275.382 91.4653 273.698 94.3154 269.712 95.3519ZM87.9573 44.158 91.9436 44.158 91.9436 45.3838 87.9573 45.3838 87.9573 48.2041 93.7075 48.2041 93.7075 49.3701 87.9972 49.3701 87.9972 52.1804 91.4752 52.1804 91.4752 53.4162 88.0071 53.4162 88.0071 56.2265 92.4419 56.2265 92.3323 57.4324 87.9773 57.4324 87.9773 60.2228 92.3622 60.2228 92.3622 61.4187 88.0071 61.4187 88.0071 64.2688 94.6742 64.2688 94.5646 65.5145 88.0071 65.5145 88.0071 68.4245 93.3388 68.4245C93.5481 69.2318 93.3388 69.5407 92.6013 69.5208 91.0666 69.5208 89.5319 69.5208 87.9972 69.5208L87.9972 72.3211C88.7406 72.2757 89.4861 72.2757 90.2295 72.3211 90.5584 72.3211 90.8474 72.7198 91.1563 72.939 90.8673 73.1283 90.5883 73.4473 90.2793 73.4772 89.5191 73.5173 88.7574 73.5173 87.9972 73.4772L87.9972 76.2476 89.3625 76.417 89.2429 77.4136 87.9872 77.5232 87.9872 101.142 173.583 101.142C173.847 101.178 174.115 101.178 174.38 101.142 174.609 101.039 174.821 100.901 175.008 100.733 174.789 100.604 174.569 100.365 174.34 100.345 173.702 100.345 173.054 100.345 172.407 100.345 171.988 100.345 171.261 100.584 171.41 99.7567 171.41 99.5375 172.038 99.2784 172.407 99.2485 173.254 99.1687 174.121 99.2485 175.018 99.2485L175.018 96.3584 169.507 96.3584 169.576 95.1725 174.998 95.1725 174.998 92.3123 170.015 92.3123 170.015 91.0666 174.998 91.0666 174.998 88.1965 168.42 88.1965 168.42 87.0106 174.988 87.0106 174.988 84.2102C173.832 84.2102 172.736 84.2102 171.649 84.2102 171.151 84.2102 170.244 84.6387 170.264 83.6322 170.284 82.6257 171.121 83.1439 171.6 83.114 172.716 83.0442 173.842 83.114 175.008 83.114L175.008 80.2339 172.716 80.2339 172.716 79.0281 174.968 79.0281 174.968 76.1181 171.779 76.1181 171.908 74.982 174.988 74.982 174.988 72.1617C173.882 72.1617 172.865 72.1617 171.849 72.1617 171.42 72.1617 170.852 72.2713 170.952 71.5538 171.002 71.3246 171.53 71.0754 171.849 71.0555 172.845 70.9857 173.931 71.0555 175.008 71.0555L175.008 68.1654 172.197 68.1654 172.257 67.0094 174.958 67.0094 174.958 64.0895 172.716 64.0895 172.716 62.9235 175.008 62.9235C175.008 62.6145 175.008 62.3953 175.087 62.2558 175.262 62.0308 175.459 61.8238 175.675 61.6379 175.875 61.8469 176.046 62.0815 176.184 62.3355 176.229 62.5993 176.229 62.8689 176.184 63.1328L176.184 87.1501C176.508 86.8036 176.768 86.402 176.951 85.9642 178.379 82.8224 182.083 81.4328 185.225 82.8604 186.069 83.244 186.817 83.8106 187.415 84.5192 188.522 85.8284 189.234 87.4251 189.468 89.1233 189.767 90.9371 189.996 92.7608 190.265 94.6144L192.109 94.734 192.109 95.8601 190.345 95.9698 190.345 99.1588 192.039 99.2684C192.358 100.056 192.129 100.355 191.332 100.365 190.98 100.439 190.644 100.57 190.335 100.753 190.67 100.945 191.033 101.083 191.411 101.162 193.953 101.162 196.494 101.162 199.025 101.162L201.128 101.162 201.128 31.671 87.9773 31.671 87.9773 36.0759 89.2728 36.1954 89.2728 37.192 87.9673 37.3116 87.9673 40.0123 90.0601 40.1419 90.0601 41.3477 87.9573 41.3477ZM202.404 55.808 202.404 101.132 231.025 101.132 231.025 82.5659 230.028 82.4264 230.088 81.4298 240.373 81.4298C240.801 82.4862 240.034 82.4961 239.456 82.5758L239.456 101.072 248.216 101.072 248.216 55.808ZM86.7016 55.808 40.8594 55.808 40.8594 91.0268 69.1819 91.0268C69.192 90.6298 69.2252 90.2339 69.2816 89.8408 69.6448 87.8444 70.1374 85.8736 70.7565 83.9411 71.3866 82.219 73.1891 81.2242 74.982 81.6092 76.5037 81.752 77.7976 82.78 78.2806 84.2301 78.9384 86.1436 79.2772 88.2164 79.7456 90.1398 79.8253 90.4787 80.0844 91.0467 80.2837 91.0567 82.4264 91.1165 84.569 91.0567 86.7515 91.0567ZM264.679 69.8197C265.935 70.2084 265.815 71.2548 265.775 72.2215 265.666 74.7229 265.506 77.2043 265.377 79.7356 265.297 81.37 265.217 83.0044 265.168 84.6387 265.168 85.6353 264.47 86.7814 265.736 87.5786 265.885 87.6783 265.855 88.1566 265.825 88.4456 265.82 89.2035 265.733 89.9586 265.566 90.6979 265.278 91.7121 265.728 92.791 266.652 93.299 268.109 94.4649 270.179 94.4649 271.635 93.299 273.382 91.8678 274.463 89.7811 274.625 87.5288 274.675 87.1003 274.426 86.6419 274.456 86.2133 274.555 84.8879 274.725 83.5624 274.834 82.227 274.814 81.9422 274.747 81.6626 274.635 81.3999 274.407 80.9405 274.262 80.4446 274.206 79.9349 274.326 78.3205 274.595 76.706 274.735 75.0916 274.818 74.6316 274.722 74.1572 274.466 73.7662 273.685 73.0283 273.345 71.9368 273.569 70.8861 273.648 69.451 273.838 68.0159 273.888 66.5809 273.998 65.895 273.871 65.1921 273.529 64.5877 272.532 63.4616 272.592 62.176 272.612 60.8506 272.612 59.2162 272.751 57.5719 272.612 55.9375 272.512 54.5822 272.074 53.2468 271.874 51.8914 271.785 51.2337 271.874 50.6557 271.147 50.1773 270.753 49.7402 270.536 49.1715 270.539 48.5828 270.242 45.8466 269.572 43.1641 268.546 40.6103 268.347 42.3044 268.217 43.7295 268.008 45.1347 267.729 47.1278 267.41 49.0313 267.091 50.9846 266.971 51.6722 266.832 52.3598 266.682 53.0475 266.613 53.3365 266.593 53.775 266.403 53.8746 265.546 54.333 265.805 55.0406 265.865 55.7282 265.925 56.4159 266.294 57.4623 265.427 58.1499 265.327 58.2296 265.427 58.5087 265.377 58.698 265.317 59.9238 265.277 61.1595 265.207 62.3853 265.207 62.6145 265.207 62.9733 265.068 63.0331 264.071 63.5114 264.669 64.6376 264.141 65.3053 264.051 65.4149 264.251 65.7637 264.34 65.9929 264.579 66.4192 264.75 66.8797 264.849 67.3582 264.856 68.1819 264.799 69.0048 264.679 69.8197ZM251.485 24.5655C251.403 24.8196 251.339 25.0794 251.295 25.3428 251.306 26.856 251.18 28.3671 250.917 29.8573 250.46 31.6666 250.288 33.536 250.408 35.3982 250.481 36.458 250.455 37.5224 250.329 38.5772 250.198 39.2436 249.892 39.8629 249.442 40.3711 248.806 40.9422 248.484 41.7838 248.575 42.6333 248.729 43.3727 248.729 44.1361 248.575 44.8756 248.192 46.0931 248.22 47.4027 248.654 48.6028 249.472 50.9048 250.169 53.2468 250.946 55.6385L249.551 55.8179 249.551 57.1234C249.551 66.8599 249.551 76.5865 249.551 86.323 249.551 87.7779 249.84 88.2065 251.405 88.1965 252.428 88.027 253.408 87.6542 254.285 87.1003 254.474 87.0106 254.514 86.592 254.604 86.323 255.072 84.8281 254.395 83.3332 254.853 81.6989 255.581 79.0679 255.371 76.1878 255.68 73.4174 255.969 70.8562 255.551 68.2053 256.996 65.7537 257.653 64.6376 257.564 63.0829 257.833 61.7674 258.075 61.1084 258.235 60.4224 258.311 59.7245 258.251 58.6183 257.883 57.532 257.753 56.4358 257.374 53.3066 257.036 50.1773 256.707 47.0481 256.677 46.4904 256.677 45.9315 256.707 45.3739L256.278 45.5433C255.939 45.1237 255.652 44.6654 255.421 44.178 255.172 43.4106 255.102 42.5835 254.893 41.7962 254.668 41.3576 254.471 40.9049 254.305 40.4408 254.135 39.245 254.185 38.0192 253.946 36.8432 253.557 34.9597 252.95 33.126 252.551 31.2325 252.152 29.339 252.063 27.316 251.813 25.3428 251.727 25.0744 251.617 24.8142 251.485 24.5655ZM37.1621 35.1092C36.5944 36.4775 36.0987 37.8746 35.6772 39.2948 35.2985 40.7797 35.1889 42.2845 34.8999 43.8491 34.7903 44.447 34.6807 45.3041 34.2721 45.5532 33.2755 46.1512 33.4848 47.0381 33.3652 47.8653 33.3466 48.7669 33.2228 49.6632 32.9965 50.5361 32.4946 51.6895 32.2923 52.951 32.4085 54.2035 32.5653 55.8596 32.6318 57.523 32.6078 59.1863 32.5901 59.7741 32.3761 60.3389 31.9999 60.7908 31.0033 61.887 31.2026 63.1626 31.372 64.3884 31.6112 66.0228 32.1892 67.6273 32.3686 69.2617 32.7473 72.6998 32.9466 76.148 33.2356 79.5961 33.2356 79.9947 33.2356 80.5927 33.4748 80.7521 34.2322 81.1408 33.9432 81.649 33.8834 82.1972 33.7792 82.8829 33.7492 83.5778 33.7937 84.27 33.8535 84.9078 34.3418 85.6054 34.1824 86.1535 33.9213 87.5872 33.7879 89.0413 33.7837 90.4986 33.5844 92.3821 34.0429 93.1096 35.9762 93.3587 36.4657 93.4235 36.9616 93.4235 37.4511 93.3587 38.6448 93.3984 39.6446 92.4628 39.6842 91.2691 39.6891 91.1212 39.6789 90.9732 39.6535 90.8274L39.6535 55.808 38.2882 55.5887C38.6171 54.5323 38.9559 53.5956 39.2151 52.599 39.4742 51.6024 40.3711 50.3667 39.2948 49.1708 39.1254 48.9715 39.2948 48.5131 39.235 48.1742 39.2625 47.835 39.2113 47.4939 39.0855 47.1777 38.2882 45.9818 38.9858 44.5268 38.1388 43.1914 37.4711 42.135 37.8896 40.4109 37.7501 38.9858 37.6106 37.5607 37.3614 36.4546 37.1621 35.1092ZM202.354 30.3655C201.865 28.2727 201.636 28.0734 199.713 28.0734L89.3725 28.0734C87.479 28.0734 87.1401 28.3724 86.8312 30.3655ZM22.4826 80.2937C22.5723 80.9215 22.6321 81.4099 22.7118 81.8882 23.0407 83.981 23.7084 86.0937 22.363 88.0968 22.3032 88.1965 22.363 88.3958 22.363 88.5453 22.5656 90.9676 23.3558 93.3039 24.6651 95.3519 26.1102 97.5643 28.1731 97.7536 29.8573 95.7106 30.7054 94.6469 31.4622 93.5134 32.1195 92.3223 32.3958 91.783 32.5361 91.1842 32.5281 90.5783 32.5281 89.1831 32.4284 87.7879 32.3686 86.3927 32.2989 84.6786 32.269 82.9545 32.1494 81.2404 31.9501 78.5397 31.7009 75.839 31.4418 73.1383 31.2525 71.1452 31.0232 69.152 30.804 67.1589 30.804 67.0094 30.804 66.8001 30.6844 66.7304 29.2693 65.7338 29.6878 64.0695 29.07 62.7441 28.7402 61.7234 28.5393 60.6655 28.472 59.5949 28.0535 57.3128 27.605 55.0306 27.1565 52.6189 27.0071 54.9708 26.8675 57.2331 26.7181 59.4953 26.6583 60.3623 26.6084 61.2293 26.4888 62.0963 26.4507 62.4255 26.295 62.7298 26.0504 62.9534 25.3827 63.4517 25.3827 64.0994 25.3428 64.8469 25.2588 65.8528 25.1056 66.8517 24.8844 67.8366 24.695 68.8331 24.107 69.9892 24.3462 70.906 24.8345 72.8194 23.8479 74.4538 23.6088 76.1878 23.4136 76.9624 23.3562 77.7652 23.4393 78.5597 23.6187 79.3968 23.539 80.0844 22.4826 80.2937ZM200.789 26.9074C199.972 24.7747 199.972 24.7747 197.959 24.7747L90.8474 24.7747C88.8542 24.7747 88.8542 24.7747 88.4058 26.9074ZM260.942 56.3062 260.653 56.3062C260.494 56.5056 260.244 56.6949 260.195 56.9241 259.716 59.2362 259.278 61.5482 258.809 63.9001 258.68 64.508 258.441 65.096 258.281 65.7039 258.168 66.7857 257.829 67.8315 257.285 68.7733 256.786 69.461 256.916 70.6369 256.816 71.5936 256.455 74.0435 256.242 76.5128 256.178 78.9882 256.228 81.3102 255.421 83.6123 256.089 85.9642 256.108 86.0763 256.108 86.1909 256.089 86.303L255.939 90.6879C255.964 90.9464 255.964 91.2067 255.939 91.4653 255.448 93.8813 256.878 96.2739 259.238 96.9863 260.415 97.4399 261.75 97.0279 262.467 95.9897 263.106 95.0717 263.607 94.0643 263.952 93 264.328 91.4686 264.365 89.8734 264.061 88.3261 263.683 85.6752 264.061 82.9147 264.141 80.194 264.141 79.0081 264.141 77.8222 264.231 76.6363 264.32 75.4504 264.4 74.5435 264.49 73.4174 263.334 73.7163 263.075 73.1283 263.174 72.2215 263.254 71.474 263.414 70.7266 263.473 69.9792 263.538 69.3797 263.538 68.7749 263.473 68.1754 263.374 67.2685 263.184 66.3716 263.025 65.4647L262.716 63.6809C261.6 64.2688 261.331 64.1792 261.261 63.1527 261.102 60.7908 261.102 58.5386 260.942 56.2664ZM199.155 23.5091C198.298 21.2867 198.298 21.2867 196.165 21.2867L120.884 21.2867 120.884 23.5091ZM232.271 82.5858 232.271 101.142 238.071 101.142 238.071 82.546ZM249.212 54.5722C248.884 52.4296 248.884 52.4296 246.87 52.4296L202.384 52.4296 202.384 54.5722ZM86.7016 52.4395 40.4608 52.4395 39.8628 54.5224 86.7016 54.5224ZM247.07 47.8354C246.711 45.6529 246.711 45.6529 244.678 45.6529L202.404 45.6529 202.404 47.8354ZM42.0752 47.8354 86.7016 47.8354 86.7016 45.6828 85.2766 45.6828C71.5737 45.6828 57.8609 45.6828 44.1481 45.6828 42.8625 45.6828 42.2845 46.0615 42.1549 47.2773 42.1549 47.4268 42.1151 47.6062 42.0752 47.8354ZM43.0718 44.4271 86.7016 44.4271 86.7016 42.5137C86.6092 42.4701 86.5123 42.4367 86.4126 42.414 72.4009 42.414 58.3858 42.414 44.3673 42.414 44.0095 42.4963 43.7045 42.7287 43.5302 43.0519 43.3312 43.4917 43.184 43.9532 43.0917 44.4271ZM202.374 49.0612 202.374 51.1241 248.056 51.1241C247.857 49.1309 247.767 49.0612 245.934 49.0612L202.394 49.0612ZM40.9292 51.0543 86.7016 51.0543 86.7016 49.0612 43.2312 49.0612C41.2879 49.0612 41.2879 49.0612 40.989 51.0942ZM86.7016 99.398 40.8594 99.398 40.8594 101.102 86.7016 101.102ZM233.038 42.4938 202.413 42.4938 202.413 44.4869 233.068 44.4869ZM117.097 21.2469 92.3323 21.2469C90.5783 21.2469 90.2594 21.5459 89.9903 23.4493L117.097 23.4493ZM78.6195 91.0068C78.3504 88.4955 78.2009 86.024 76.716 83.9411 75.9135 82.6514 74.2173 82.2563 72.9276 83.0589 72.5039 83.3225 72.1599 83.6963 71.9325 84.1405 70.6668 86.2333 70.5273 88.6051 70.3978 91.0068ZM179.712 101.092 179.712 88.5254C179.122 88.4694 178.528 88.4694 177.938 88.5254 177.542 88.6124 177.204 88.8669 177.011 89.223 176.014 93.1096 176.283 97.076 176.174 101.092ZM185.472 101.092 189.01 101.092C189.256 97.1279 189.016 93.1484 188.292 89.2429 188.198 88.9156 187.954 88.6527 187.634 88.5353 186.914 88.485 186.192 88.485 185.472 88.5353ZM184.226 101.092 184.226 88.5951 181.087 88.5951 181.087 101.122ZM187.535 87.2298C186.978 84.8814 184.775 83.3033 182.372 83.5326 180.147 83.5063 178.222 85.0752 177.798 87.2597ZM237.891 44.3773 246.013 44.3773C245.575 42.3841 245.575 42.3841 243.642 42.3841L237.891 42.3841ZM43.5601 92.3024 40.9292 92.3024 40.9292 98.0227 43.6099 98.0227ZM64.4881 92.3024 64.4881 98.0626 67.0792 98.0626 67.0792 92.3323ZM60.5018 92.3024 60.5018 98.0626 63.1327 98.0626 63.1327 92.3223ZM80.0446 92.3024 80.0446 98.0725 82.7154 98.0725 82.7154 92.3123ZM84.0308 98.0825 86.7016 98.0825 86.7016 92.3223 83.971 92.3223ZM47.6161 98.0825 47.6161 92.3522 44.9553 92.3522 44.9553 98.0825ZM55.4093 92.3622 52.8182 92.3622 52.8182 98.0825 55.3994 98.0825ZM72.351 98.0626 74.9322 98.0626 74.9322 92.3323 72.3012 92.3323ZM48.832 92.3024 48.832 98.0825 51.423 98.0825 51.423 92.3024ZM56.675 92.3024 56.675 98.0626 59.1465 98.0626 59.1465 92.3223ZM76.2078 92.3024 76.2078 98.0426 78.7291 98.0426 78.7291 92.3123ZM234.304 38.4876 234.304 44.3773 236.596 44.3773 236.596 38.5175ZM119.658 17.3902 118.363 17.45 118.363 23.4294 119.658 23.4294ZM71.0156 92.3721 70.7565 92.2027C70.5871 92.412 70.2782 92.6213 70.2682 92.8306 70.1984 94.3752 70.1685 95.9199 70.1885 97.4646 70.1885 97.7038 70.5373 97.943 70.7167 98.1821L70.9957 97.9928ZM68.594 92.2027 68.3348 92.3921C68.3348 94.0962 68.3348 95.8003 68.3348 97.4945 68.3348 97.7337 68.5441 97.9629 68.6537 98.1921L69.1022 98.1024C69.1022 96.2986 69.1022 94.4948 69.1022 92.691 69.0922 92.5216 68.7634 92.3622 68.594 92.2027Z" fill="#FFC107" fill-rule="nonzero" fill-opacity="1" transform="matrix(1.00218 0 0 1 74.8284 49.3212)"/><path d="M138.414 56.1867 136.032 56.1867 136.032 58.3691 138.434 58.3691 138.533 59.5451 136.032 59.5451 136.032 61.6479 138.444 61.7575 138.523 62.8537 136.032 62.9733 136.032 65.0362 137.587 65.1757 137.587 66.0427C135.205 67.3881 132.673 67.0393 130.202 66.9695 129.15 66.8272 128.118 66.5699 127.123 66.2022 126.584 64.5678 128.119 65.395 128.687 64.9365L128.687 62.9434 126.315 62.8238 126.315 61.7874 128.667 61.6778 128.667 59.6846 126.345 59.6846 126.345 58.419 128.677 58.419 128.677 56.2365 126.345 56.2365 126.236 55.0406 128.229 55.0406C131.368 55.0406 134.507 55.0406 137.646 55.0406 138.434 55.0207 138.663 55.3097 138.414 56.1867ZM129.943 65.7737 134.657 65.7737 134.657 56.2464 129.943 56.2464Z" fill="#FFC107" fill-rule="nonzero" fill-opacity="1" transform="matrix(1.00218 0 0 1 74.8284 49.3212)"/><path d="M119.359 66.0228C116.958 67.3482 114.446 67.0194 111.975 67.0194 111.357 67.0194 110.669 67.2785 110.211 66.4613 110.071 66.2122 109.294 66.3417 108.666 66.2819L108.626 65.1956 110.35 65.0462 110.35 62.9235 107.919 62.9235 107.919 61.7176 110.36 61.7176 110.36 59.6049 107.919 59.6049 107.919 58.4289 110.35 58.4289 110.35 56.2165 108.018 56.2165C107.689 55.3695 107.839 55.0207 108.726 55.0306 112.254 55.0306 115.772 55.0306 119.299 55.0306 120.067 55.0306 120.356 55.2698 120.097 56.1468L117.735 56.1468 117.735 58.3691 120.117 58.3691 120.206 59.5551 117.735 59.5551 117.735 61.6479 120.117 61.7674 120.117 62.9035 117.715 62.9035 117.715 65.0262 119.369 65.2156ZM116.469 56.2564 111.616 56.2564 111.616 65.7737 116.449 65.7737Z" fill="#FFC107" fill-rule="nonzero" fill-opacity="1" transform="matrix(1.00218 0 0 1 74.8284 49.3212)"/><path d="M156.511 56.1867 154.13 56.1867 154.13 58.3791 156.541 58.3791 156.611 59.5252 154.13 59.6448 154.13 61.7176C154.73 61.6776 155.333 61.6776 155.933 61.7176 156.173 61.7176 156.392 62.0565 156.611 62.2358 156.392 62.4551 156.193 62.8238 155.943 62.8637 155.333 62.9141 154.72 62.9141 154.11 62.8637L154.11 64.9864 155.754 65.1359 155.754 65.9829C153.352 67.3084 150.831 66.9795 148.359 66.9297 147.317 66.8164 146.293 66.5754 145.31 66.2122 145.17 66.2122 145.071 65.7637 145.081 65.5345 145.128 65.3343 145.275 65.1725 145.469 65.106 145.888 65.0439 146.312 65.0139 146.735 65.0163L146.735 62.9534 144.313 62.9534 144.244 61.7874 146.705 61.6778 146.705 59.6049 144.303 59.6049 144.303 58.419 146.715 58.419 146.715 56.1966 144.303 56.1966 144.303 55.2C144.393 55.2 144.493 55.0705 144.592 55.0705 148.34 55.0705 152.087 55.0705 155.834 55.0705 156.631 55.0306 156.701 55.4193 156.511 56.1867ZM152.824 65.7737 152.824 56.2664 148.08 56.2664 148.08 65.7737Z" fill="#FFC107" fill-rule="nonzero" fill-opacity="1" transform="matrix(1.00218 0 0 1 74.8284 49.3212)"/><path d="M120.137 83.3831 120.137 84.4693 117.725 84.4693 117.725 86.7016 120.117 86.8113 120.117 87.9274 117.745 87.9274 117.745 90.0003 120.087 90.0003 120.216 91.1862 117.735 91.1862 117.735 93.4086 119.369 93.5182 119.369 94.5148 118.971 94.6244C118.462 94.734 117.735 94.2955 117.526 95.2323 117.526 95.322 117.047 95.3419 116.788 95.3419 114.974 95.3419 113.151 95.3419 111.337 95.3419 111.018 95.3419 110.719 94.9831 110.34 94.8735 109.832 94.7141 109.294 94.6343 108.636 94.4948L108.537 93.4983 110.31 93.4185 110.31 91.2061 107.869 91.2061 107.809 90.0302 110.29 90.0302 110.29 87.9573 107.899 87.9573 107.799 86.7515 110.29 86.7515 110.29 84.5391 107.929 84.5391 107.849 83.3831ZM111.616 94.0165 116.449 94.0165 116.449 84.5989 111.616 84.5989Z" fill="#FFC107" fill-rule="nonzero" fill-opacity="1" transform="matrix(1.00218 0 0 1 74.8284 49.3212)"/><path d="M136.042 90.1299C136.666 90.0945 137.291 90.0945 137.915 90.1299 138.135 90.1299 138.314 90.4388 138.513 90.6082 138.314 90.8175 138.135 91.1663 137.915 91.1962 137.288 91.2419 136.659 91.2419 136.032 91.1962L136.032 93.3189 137.606 93.3986 137.676 94.1959C135.215 95.5911 132.624 95.1924 130.082 95.1924 129.544 95.1924 128.936 95.4216 128.578 94.6244 128.478 94.3952 127.681 94.4749 127.093 94.4051L126.993 93.4086 128.677 93.279 128.677 91.236 126.345 91.236 126.345 90.0103 128.677 90.0103 128.677 87.9474 126.335 87.9474 126.246 86.7714 128.697 86.6618 128.697 84.569 126.335 84.569 126.265 83.3033 131.119 83.3033C133.281 83.3033 135.434 83.3033 137.597 83.3033 138.424 83.3033 138.713 83.5824 138.384 84.4992L136.022 84.4992 136.022 86.7016 138.444 86.8212 138.444 87.8975 136.042 87.8975ZM129.943 84.579 129.943 94.0065 134.677 94.0065 134.677 84.579Z" fill="#FFC107" fill-rule="nonzero" fill-opacity="1" transform="matrix(1.00218 0 0 1 74.8284 49.3212)"/><path d="M145.091 94.435 145.091 93.4385 146.725 93.3189 146.725 91.2261 144.343 91.2261 144.343 90.0003 146.725 90.0003 146.725 88.0071 144.333 88.0071 144.224 86.7814 146.695 86.7814 146.695 84.5192 144.303 84.5192 144.303 83.3033 148.061 83.3033C150.602 83.3033 153.133 83.3033 155.674 83.3033 155.993 83.3033 156.302 83.692 156.611 83.8913 156.311 84.1325 155.975 84.3242 155.615 84.4594 155.111 84.5098 154.603 84.5098 154.1 84.4594L154.1 86.7016C154.72 86.6617 155.343 86.6617 155.963 86.7016 156.193 86.7016 156.382 87.0704 156.591 87.2697 156.392 87.469 156.212 87.8178 155.983 87.8477 155.36 87.8933 154.733 87.8933 154.11 87.8477L154.11 89.9903 156.531 89.9903 156.531 91.1862 154.1 91.1862 154.1 93.3587 155.744 93.4584 155.744 94.455 155.296 94.5148C154.797 94.6045 154.12 94.2258 153.92 95.1127 153.92 95.2124 153.372 95.2323 153.073 95.2323 151.339 95.2323 149.595 95.2323 147.851 95.2323 147.473 95.2323 147.114 94.8337 146.715 94.7141 146.317 94.5945 145.729 94.5447 145.091 94.435ZM152.804 94.0464 152.804 84.569 148.061 84.569 148.061 94.0464Z" fill="#FFC107" fill-rule="nonzero" fill-opacity="1" transform="matrix(1.00218 0 0 1 74.8284 49.3212)"/><path d="M182.472 68.7634 182.472 67.7668 184.216 67.6771 184.216 59.7942 182.502 59.6946 182.412 58.698 192.378 58.698 192.378 59.6946 190.644 59.7942 190.644 67.6671 192.338 67.6671 192.458 68.7634ZM185.462 59.7942 185.462 67.6671 189.269 67.6671 189.269 59.7942Z" fill="#FFC107" fill-rule="nonzero" fill-opacity="1" transform="matrix(1.00218 0 0 1 74.8284 49.3212)"/><path d="M144.303 79.7257 144.303 78.7291 146.695 78.7291 146.695 76.2377 145.131 76.128 145.041 75.0717 155.774 75.0717 155.774 76.0682 154.13 76.1878 154.13 78.3803C154.738 79.2074 156.482 77.7425 156.641 79.7655 156.034 79.7297 155.425 79.7297 154.817 79.7655 154.558 79.7655 154.319 80.0446 154.07 80.194 154.287 80.3733 154.529 80.5209 154.787 80.6325 155.118 80.6755 155.453 80.6755 155.784 80.6325L155.844 81.7088 145.24 81.7088C145.001 80.7123 145.001 80.7123 146.606 80.5727 146.705 80.0446 146.705 80.0446 144.303 79.7257ZM148.08 76.2675 148.08 80.6923 152.804 80.6923 152.804 76.2377Z" fill="#FFC107" fill-rule="nonzero" fill-opacity="1" transform="matrix(1.00218 0 0 1 74.8284 49.3212)"/><path d="M138.523 49.7687 138.523 50.8251 136.012 50.9347 136.012 52.3698 137.597 52.4794 137.597 53.5557 126.993 53.5557 126.993 52.5193 128.667 52.4096 128.667 50.7254 126.505 50.7254 126.405 49.5694 128.667 49.4598 128.667 48.0945C128.289 47.4866 126.674 48.6526 126.993 46.8687L137.626 46.8687 137.626 47.8653 136.012 48.0048 136.012 49.7887ZM129.993 52.3997 134.706 52.3997 134.706 47.9948 129.993 47.9948Z" fill="#FFC107" fill-rule="nonzero" fill-opacity="1" transform="matrix(1.00218 0 0 1 74.8284 49.3212)"/><path d="M144.293 50.9746 144.293 49.8285 146.695 49.8285 146.695 48.0746C146.257 47.5763 144.752 48.543 145.131 46.8588L155.784 46.8588 155.784 47.8553 154.15 47.9749 154.15 49.7388 156.541 49.7388 156.611 50.8949 154.12 50.8949 154.12 52.3997 155.764 52.5193 155.854 53.5158 145.111 53.5158 145.111 52.5193 146.725 52.3997 146.795 50.9646ZM152.834 47.9849 148.09 47.9849 148.09 52.3897 152.834 52.3897Z" fill="#FFC107" fill-rule="nonzero" fill-opacity="1" transform="matrix(1.00218 0 0 1 74.8284 49.3212)"/><path d="M127.202 81.7886C126.983 81.091 127.073 80.6923 127.92 80.7023 128.189 80.7023 128.468 80.4033 128.737 80.2439 128.463 80.0653 128.164 79.9277 127.85 79.8353 127.372 79.8004 126.893 79.8004 126.415 79.8353 126.256 78.9284 126.256 78.9284 128.677 78.5896L128.677 76.2875 127.451 76.0882 127.451 75.0916 137.915 75.0916 137.915 76.148 136.022 76.2675 136.022 78.6693 138.444 78.6693 138.493 79.6659C136.082 80.0744 136.082 80.0744 136.022 80.6624L137.557 80.7721 137.676 81.7686ZM129.953 80.6425 134.667 80.6425 134.667 76.2476 129.953 76.2476Z" fill="#FFC107" fill-rule="nonzero" fill-opacity="1" transform="matrix(1.00218 0 0 1 74.8284 49.3212)"/><path d="M119.359 81.8085 109.055 81.8085C108.905 80.8119 108.905 80.8119 110.281 80.6226 110.281 79.9349 110.281 79.9349 107.949 79.7456 107.799 79.1875 107.63 78.6494 108.576 78.6793L110.34 78.6793 110.34 76.2277 108.985 76.128 108.905 75.0717 119.588 75.0717 119.708 76.138 117.715 76.138 117.715 78.5298C118.502 78.6593 119.319 78.7789 120.117 78.9583 120.176 78.9583 120.117 79.4366 120.117 79.6061 119.369 80.2439 118.124 79.1676 117.555 80.4232 118.143 81.091 119.688 80.0645 119.359 81.8085ZM111.616 80.6425 116.459 80.6425 116.459 76.2875 111.616 76.2875Z" fill="#FFC107" fill-rule="nonzero" fill-opacity="1" transform="matrix(1.00218 0 0 1 74.8284 49.3212)"/><path d="M108.826 53.5856 108.826 52.5193 110.34 52.4196 110.34 50.5859C109.862 49.9581 108.248 51.2038 108.407 49.3302L110.34 49.2505 110.42 48.0048 108.855 47.8354 108.855 46.8388 119.369 46.8388 119.369 47.8354 117.735 47.9649 117.735 49.2605 120.346 49.2605 120.346 50.3667 117.725 50.3667 117.725 52.3598 119.359 52.4894 119.359 53.5457ZM111.616 47.955 111.616 52.3997 116.429 52.3997 116.429 47.955Z" fill="#FFC107" fill-rule="nonzero" fill-opacity="1" transform="matrix(1.00218 0 0 1 74.8284 49.3212)"/><path d="M155.335 34.88 155.335 35.9961C154.882 35.9505 154.424 35.9505 153.97 35.9961 153.672 36.1092 153.398 36.2784 153.163 36.4944L153.352 36.8233 156.232 36.8233 156.342 38.0192C155.565 38.0192 154.857 38.0192 154.15 38.0192 153.832 38.0998 153.529 38.231 153.253 38.4078 153.532 38.5672 153.821 38.707 154.12 38.8264 154.361 38.8544 154.605 38.8544 154.847 38.8264L154.847 39.823 153.332 39.9426 153.103 41.0487 147.811 41.0487 147.612 40.0522C146.855 39.4742 145.41 40.5804 145.071 38.7367 145.838 38.7367 146.436 38.7367 147.064 38.7367 147.283 38.7367 147.492 38.4776 147.702 38.3381 147.507 38.1689 147.284 38.0342 147.044 37.9394 146.676 37.9089 146.306 37.9089 145.938 37.9394L145.938 36.8731 147.612 36.8731C147.612 36.2353 147.612 36.2353 145.031 35.8765 145 35.7456 144.98 35.6122 144.971 35.4779 144.971 35.2886 144.971 35.1092 144.971 34.8202L147.622 34.8202 147.742 33.6642 153.113 33.6642 153.332 34.7703ZM148.997 34.88 148.997 39.9625 151.987 39.9625 151.987 34.7903Z" fill="#FFC107" fill-rule="nonzero" fill-opacity="1" transform="matrix(1.00218 0 0 1 74.8284 49.3212)"/><path d="M127.79 38.8663C128.151 38.9022 128.515 38.9022 128.877 38.8663 129.121 38.7771 129.35 38.6493 129.554 38.4876 129.335 38.348 129.136 38.0889 128.916 38.079 128.239 38.0192 127.561 38.079 126.814 38.079L126.734 36.8731 129.554 36.8731 129.554 33.6143 135.085 33.6143 135.085 36.7735 136.53 36.8731 136.61 37.9195C136.295 37.9255 135.981 37.9622 135.673 38.0291 135.474 38.0989 135.324 38.3082 135.155 38.4477 135.334 38.5872 135.514 38.8065 135.703 38.8264 136.221 38.8762 136.759 38.8264 137.268 38.8264 137.497 39.8828 137.497 39.8828 135.275 40.0123L135.065 41.1085 129.704 41.1085 129.484 40.0123 127.8 39.9226ZM130.86 40.0023 133.899 40.0023 133.899 34.8002 130.86 34.8002Z" fill="#FFC107" fill-rule="nonzero" fill-opacity="1" transform="matrix(1.00218 0 0 1 74.8284 49.3212)"/><path d="M119.299 36.7934 119.299 37.9992C118.652 37.9992 118.014 37.9992 117.396 37.9992 117.167 37.9992 116.967 38.2583 116.758 38.3979 116.95 38.5639 117.169 38.6954 117.406 38.7865 117.774 38.8227 118.144 38.8227 118.512 38.7865L118.592 39.8628 116.798 39.9725 116.688 41.0687 111.397 41.0687 111.207 40.0721C110.589 39.4542 109.005 40.68 108.895 38.7666 109.503 38.7666 110.001 38.7666 110.47 38.7666 110.753 38.6826 111.025 38.562 111.277 38.4078L110.45 37.9394C110.313 37.903 110.173 37.8796 110.031 37.8697L109.962 36.8731 111.257 36.7336 111.257 33.6044 116.698 33.6044 116.698 36.7934ZM115.552 34.8002 112.563 34.8002 112.563 39.9625 115.552 39.9625Z" fill="#FFC107" fill-rule="nonzero" fill-opacity="1" transform="matrix(1.00218 0 0 1 74.8284 49.3212)"/><path d="M192.388 50.0478 192.388 51.0443 190.644 51.154 190.644 54.9908 192.358 55.1502 192.438 56.2066 182.472 56.2066 182.422 55.21 184.196 55.0605 184.196 51.1938 182.482 51.0942 182.372 50.0478ZM189.279 55.0306 189.279 51.2138 185.472 51.2138 185.472 55.0506Z" fill="#FFC107" fill-rule="nonzero" fill-opacity="1" transform="matrix(1.00218 0 0 1 74.8284 49.3212)"/><path d="M190.514 33.5346 190.514 40.0123 185.92 40.0123 185.92 33.5346ZM189.348 34.6508 187.066 34.6508 187.066 38.8663 189.348 38.8663Z" fill="#FFC107" fill-rule="nonzero" fill-opacity="1" transform="matrix(1.00218 0 0 1 74.8284 49.3212)"/><path d="M221.119 68.6637 222.823 68.6637 222.913 69.75 219.923 69.75 219.724 67.6871 218.02 67.6871C218.149 69.9692 218.279 72.1816 218.418 74.4937L211.223 74.4937C211.333 72.2314 211.442 69.9892 211.562 67.6871L209.938 67.6871 209.738 69.7599 206.509 69.7599C206.39 69.2019 206.23 68.6836 207.107 68.6936L208.373 68.6936C208.991 66.551 209.459 64.5279 210.157 62.5946 210.854 60.6613 212.569 59.3557 214.442 58.4389 214.745 58.3629 215.066 58.4057 215.339 58.5585 218 59.6846 219.325 61.887 220.162 64.5379 220.561 65.8235 220.79 67.2087 221.119 68.6637ZM217.252 73.3376C216.774 69.8995 217.252 66.3616 214.691 63.2822 212.509 66.4713 212.559 69.9094 212.459 73.3376ZM215.459 62.784 217.452 61.5582 215.459 59.8441ZM214.073 62.6544 214.073 59.9138 212.21 61.4585ZM210.087 66.4713C210.954 66.3816 211.971 67.0493 212.16 65.4747L210.436 64.9166ZM218.757 63.8901 218 62.5946 216.395 63.5314C217.033 65.1757 217.86 63.8403 218.767 63.8503ZM219.246 66.6706 219.465 66.262 218.957 64.7671 217.412 65.953ZM211.512 62.4949C211.363 62.7242 211.223 62.8936 211.124 63.0829 211.024 63.2723 210.934 63.5314 210.844 63.7506 212.638 64.518 212.638 64.518 212.957 63.342Z" fill="#FFC107" fill-rule="nonzero" fill-opacity="1" transform="matrix(1.00218 0 0 1 74.8284 49.3212)"/><path d="M228.872 70.8661 230.995 70.8661 230.995 69.5307 229.729 69.3513 229.729 68.3548 231.005 68.1854 231.005 66.84 227.916 66.84 227.916 65.684 231.015 65.684 231.015 64.209C230.611 64.2594 230.203 64.2594 229.799 64.209 229.52 64.1393 229.311 63.8304 229.062 63.631 229.291 63.4616 229.5 63.1826 229.759 63.1327 230.177 63.0871 230.598 63.0871 231.015 63.1327L231.015 61.6578 229.102 61.6578 229.002 60.5317 241.469 60.5317 241.469 61.5283 239.416 61.5283 239.416 62.9633 241.479 63.0829C241.599 64.8867 240.044 63.7506 239.406 64.4183L239.406 65.5743 240.492 65.684 240.572 66.6805 239.376 66.8101 239.376 68.1256 242.675 68.1256 242.834 69.2916 239.416 69.2916 239.416 70.8064 241.987 70.8064C242.256 71.6235 242.087 71.9624 241.27 71.9524 237.373 71.9524 233.477 71.9524 229.58 71.9524 228.833 72.0321 228.613 71.7531 228.872 70.8661ZM232.291 61.6877 232.291 70.8163 238.071 70.8163 238.071 61.6877Z" fill="#FFC107" fill-rule="nonzero" fill-opacity="1" transform="matrix(1.00218 0 0 1 74.8284 49.3212)"/><path d="M60.0533 60.5217 60.0533 61.5781 57.9705 61.6778 57.9107 63.0032 59.9039 63.1228 59.9039 64.1194 57.9904 64.2589 57.9904 65.6242 61.0599 65.6242 61.1695 66.7702 57.9904 66.7702 57.9904 68.1156 59.3956 68.2551 59.4654 69.2517 57.9605 69.461 57.9605 70.7266 60.2925 70.8362 60.3822 71.8328C60.1487 71.8808 59.9124 71.9141 59.6747 71.9325 55.6884 71.9325 51.8017 71.9325 47.8653 71.9325 47.1079 71.9325 46.799 71.7132 47.0581 70.8064L49.5894 70.8064 49.5894 69.4311C48.7423 69.4311 47.955 69.4909 47.1777 69.4311 46.8289 69.4311 46.2708 69.1122 46.1811 68.873 46.0316 68.0757 46.7192 68.2651 47.1777 68.2452 47.9251 68.2452 48.6825 68.2452 49.5196 68.2452L49.5196 66.8898 48.4333 66.7702 48.4333 65.7737 49.5993 65.6541 49.5993 64.2788 47.4966 64.1493 47.4966 63.1527 49.5894 63.0231 49.5894 61.6877 47.6759 61.5881 47.6161 60.5217ZM56.7148 61.7176 50.8849 61.7176 50.8849 70.8064 56.7148 70.8064Z" fill="#FFC107" fill-rule="nonzero" fill-opacity="1" transform="matrix(1.00218 0 0 1 74.8284 49.3212)"/><path d="M70.1885 63.073 70.1885 61.6778 68.1953 61.6778 68.0957 60.5317 80.5329 60.5317 80.5329 61.5283 78.6095 61.6578 78.6095 63.0829C79.2732 63.0407 79.9389 63.0407 80.6026 63.0829 80.8219 63.0829 81.0013 63.4616 81.2006 63.6709 81.0013 63.8304 80.8119 64.1293 80.6026 64.1493 79.9748 64.209 79.327 64.1493 78.6095 64.1493L78.6095 65.674 81.7985 65.674 81.7985 66.7702 78.6095 66.7702 78.6095 68.0857 79.6061 68.305C79.6061 68.4644 79.7456 68.7135 79.6659 68.8032 79.3519 69.1531 79.0192 69.4858 78.6693 69.7998L78.6693 70.7964 80.6624 70.7964 80.6624 71.9125 68.1754 71.9125 68.1754 70.916 70.1685 70.8263 70.1685 69.4311C69.3015 69.4311 68.4345 69.4311 67.5874 69.4311 67.3283 69.4311 67.0991 69.0623 66.8599 68.8531 67.0991 68.6537 67.3383 68.305 67.5974 68.285 68.4146 68.2053 69.2517 68.285 70.1685 68.285L70.1685 66.8799 68.7634 66.7702 68.6737 65.7737 70.1685 65.6441 70.1685 64.209C69.648 64.2543 69.1245 64.2543 68.6039 64.209 68.2726 64.093 67.9652 63.9174 67.697 63.6908 67.9761 63.5015 68.2452 63.1925 68.5541 63.1327 69.0958 63.0621 69.643 63.0421 70.1885 63.073ZM71.5338 70.8064 77.3438 70.8064 77.3438 61.7176 71.5338 61.7176Z" fill="#FFC107" fill-rule="nonzero" fill-opacity="1" transform="matrix(1.00218 0 0 1 74.8284 49.3212)"/><path d="M59.0468 81.4198 59.1166 82.4164 57.9307 82.6556 57.9307 90.4189 49.7089 90.4189 49.7089 82.5858C48.9316 82.526 48.244 82.4264 48.7124 81.4198ZM56.7248 89.2728 56.7248 82.5958 50.9248 82.5958 50.9248 89.2728Z" fill="#FFC107" fill-rule="nonzero" fill-opacity="1" transform="matrix(1.00218 0 0 1 74.8284 49.3212)"/><path d="M299.669 38.069C298.118 37.1596 296.865 35.8198 296.061 34.2123 295.221 32.4982 294.798 30.6099 294.826 28.7012 294.804 26.6922 295.273 24.7083 296.191 22.9211 297.053 21.2264 298.358 19.7971 299.968 18.7854 301.569 17.7786 303.428 17.256 305.319 17.2805 306.901 17.2363 308.478 17.4794 309.973 17.9981 311.069 18.363 312.053 19.0009 312.834 19.8517 313.226 20.378 313.468 21.0018 313.531 21.6555 313.627 22.6491 313.67 23.647 313.661 24.6452L312.664 24.6452C312.404 22.9712 311.627 21.4204 310.442 20.2105 309.292 19.1664 307.777 18.6184 306.226 18.6857 304.262 18.604 302.372 19.449 301.124 20.9678 299.868 22.4926 299.25 25.0638 299.25 28.6813 299.156 31.0362 299.752 33.3673 300.964 35.3882 302.104 37.1676 304.118 38.1899 306.226 38.059 307.677 38.0681 309.1 37.6562 310.322 36.8731 311.6 36.0355 312.632 34.8729 313.312 33.5047L314.418 34.3618C313.569 35.9683 312.298 37.3123 310.741 38.2484 309.06 39.121 307.182 39.5433 305.289 39.4742 303.323 39.5258 301.38 39.04 299.669 38.069Z" fill="#FFFFFF" fill-rule="nonzero" fill-opacity="1" transform="matrix(1.00218 0 0 1 74.8284 49.3212)"/><path d="M317.089 22.0342C317.142 21.2129 316.992 20.3912 316.65 19.6424 316.251 19.0723 315.567 18.7725 314.876 18.8651L314.558 18.8651 314.558 17.9383 318.364 17.9383C318.97 17.8998 319.574 18.0309 320.108 18.317 320.539 18.6109 320.845 19.0551 320.965 19.5627 321.158 20.3785 321.242 21.2163 321.215 22.0541L321.215 24.8445C321.533 24.6225 321.866 24.4227 322.211 24.2466 322.99 23.8613 323.844 23.6537 324.713 23.6387 326.247 23.5708 327.759 24.02 329.008 24.9143 330.157 25.7912 330.732 27.2861 330.732 29.3988L330.732 38.8663 326.606 38.8663 326.606 29.5882C326.7 28.4209 326.417 27.2542 325.799 26.2596 325.331 25.5966 324.567 25.2055 323.756 25.2132 323.111 25.2356 322.484 25.4319 321.942 25.7813 321.684 25.9386 321.441 26.1187 321.215 26.3194L321.215 38.8663 317.089 38.8663Z" fill="#FFFFFF" fill-rule="nonzero" fill-opacity="1" transform="matrix(1.00218 0 0 1 74.8284 49.3212)"/><path d="M334.778 38.0092C333.838 37.2482 333.314 36.088 333.363 34.88 333.327 33.946 333.589 33.0248 334.11 32.249 334.778 31.4428 335.698 30.8846 336.721 30.6645 338.424 30.2555 340.173 30.0746 341.923 30.1263L342.402 30.1263C342.511 28.7762 342.249 27.4219 341.644 26.2098 341.158 25.445 340.297 25.0027 339.392 25.0538 338.68 25.0314 337.981 25.2413 337.399 25.6517 336.753 26.2395 336.336 27.0376 336.223 27.904L334.479 27.904C334.467 27.2897 334.514 26.6757 334.619 26.0703 334.704 25.5729 334.929 25.1099 335.266 24.7349 335.924 23.9974 337.509 23.6187 340.02 23.6187 341.795 23.4956 343.543 24.1 344.863 25.293 346.064 26.6631 346.664 28.4588 346.528 30.2758L346.528 38.8663 343.817 38.8663 342.711 37.4412 342.551 37.4412C342.311 37.7871 342.01 38.0875 341.664 38.3281 340.817 38.9379 339.787 39.2403 338.744 39.1852 337.326 39.2656 335.923 38.8498 334.778 38.0092ZM340.847 37.3116C341.191 37.1134 341.501 36.861 341.764 36.5642 342.038 36.2759 342.255 35.9376 342.402 35.5676L342.402 31.5813 341.923 31.5813C340.778 31.4851 339.633 31.7688 338.665 32.3885 337.949 33.0214 337.578 33.9585 337.668 34.9099 337.625 35.6152 337.814 36.3151 338.206 36.903 338.572 37.3679 339.14 37.6277 339.731 37.6006 340.115 37.598 340.492 37.4986 340.827 37.3116Z" fill="#FFFFFF" fill-rule="nonzero" fill-opacity="1" transform="matrix(1.00218 0 0 1 74.8284 49.3212)"/><path d="M350.713 28.0634C350.765 27.2433 350.618 26.4227 350.285 25.6717 349.89 25.1013 349.208 24.801 348.521 24.8943L348.212 24.8943 348.212 23.9177 351.351 23.9177C352.726 23.9177 353.623 24.3263 354.042 25.1235L354.171 25.1235C356.024 23.5098 358.654 23.1423 360.878 24.1868 361.511 24.4775 362.077 24.8947 362.542 25.4125 363.053 24.8616 363.666 24.4148 364.346 24.0971 365.2 23.7368 366.121 23.5668 367.047 23.5988 370.744 23.5988 372.598 25.5919 372.598 29.4387L372.598 38.8663 368.472 38.8663 368.472 29.4287C368.557 28.314 368.314 27.1987 367.774 26.2198 367.379 25.5908 366.684 25.2132 365.941 25.2232 365.392 25.2175 364.848 25.3296 364.346 25.5521 363.898 25.7419 363.507 26.044 363.21 26.4291 363.308 26.6559 363.391 26.889 363.459 27.1267 363.646 27.8929 363.733 28.68 363.718 29.4686L363.718 38.8663 359.593 38.8663 359.593 29.4287C359.677 28.314 359.435 27.1987 358.895 26.2198 358.495 25.5907 357.797 25.2136 357.051 25.2232 356.568 25.2356 356.095 25.3692 355.676 25.6119 355.264 25.8269 354.9 26.1256 354.61 26.4888L354.709 26.9273C354.81 27.3346 354.854 27.7538 354.839 28.1731L354.839 38.8663 350.713 38.8663Z" fill="#FFFFFF" fill-rule="nonzero" fill-opacity="1" transform="matrix(1.00218 0 0 1 74.8284 49.3212)"/><path d="M381.099 38.3082C380.754 38.0753 380.462 37.7732 380.242 37.4212L380.082 37.4212 378.976 38.8663 376.275 38.8663 376.275 22.0342C376.325 21.2132 376.175 20.3923 375.837 19.6424 375.432 19.0724 374.746 18.7732 374.053 18.8651L373.714 18.8651 373.714 17.9383 377.521 17.9383C378.126 17.8976 378.731 18.0289 379.265 18.317 379.699 18.608 380.005 19.0535 380.122 19.5627 380.319 20.3779 380.406 21.2158 380.381 22.0541L380.381 24.5954C380.667 24.4179 380.963 24.2582 381.268 24.117 382.047 23.8152 382.874 23.6533 383.71 23.6387 385.645 23.5241 387.522 24.3293 388.772 25.8112 389.99 27.4174 390.61 29.3979 390.526 31.4119 390.611 33.4214 390.003 35.399 388.802 37.0126 387.585 38.4936 385.732 39.3015 383.819 39.1852 382.84 39.2073 381.881 38.8983 381.099 38.3082ZM385.533 36.026C386.081 34.5447 386.331 32.9701 386.271 31.392 386.271 27.1665 385.204 25.0538 383.092 25.0538 382.421 25.0697 381.762 25.2294 381.158 25.5222 380.898 25.6683 380.645 25.828 380.401 26.0005L380.401 35.6772C380.568 36.0654 380.805 36.42 381.099 36.7236 381.641 37.3475 382.424 37.7101 383.251 37.7202 384.299 37.7113 385.222 37.0266 385.533 36.026Z" fill="#FFFFFF" fill-rule="nonzero" fill-opacity="1" transform="matrix(1.00218 0 0 1 74.8284 49.3212)"/><path d="M404.608 25.1634C404.777 25.4923 404.867 25.6617 404.867 25.6816L403.262 26.9074C403.092 26.6908 402.902 26.4906 402.694 26.3095 402.257 25.8996 401.679 25.6716 401.08 25.6717 400.043 25.604 399.024 25.9641 398.26 26.6682L398.319 27.1466C398.357 27.4941 398.377 27.8434 398.379 28.193L398.379 38.8663 394.263 38.8663 394.263 28.0634C394.31 27.2436 394.164 26.4241 393.835 25.6717 393.44 25.1013 392.758 24.801 392.071 24.8943L391.752 24.8943 391.752 23.9177 394.891 23.9177C395.471 23.8944 396.05 23.9859 396.595 24.1868 397.019 24.3696 397.37 24.6888 397.592 25.0936 398.687 24.1141 400.109 23.5807 401.578 23.5988 402.377 23.5709 403.165 23.794 403.83 24.2366 404.157 24.4815 404.423 24.7987 404.608 25.1634Z" fill="#FFFFFF" fill-rule="nonzero" fill-opacity="1" transform="matrix(1.00218 0 0 1 74.8284 49.3212)"/><path d="M409.321 38.1487C408.233 37.4766 407.351 36.5182 406.77 35.3783 406.154 34.1409 405.843 32.7741 405.863 31.392 405.825 29.9346 406.136 28.4892 406.77 27.1765 407.324 26.0687 408.19 25.1473 409.262 24.5256 410.357 23.914 411.595 23.6012 412.849 23.6187 414.078 23.6025 415.293 23.8756 416.397 24.416 417.422 24.9177 418.29 25.6895 418.908 26.6483 419.526 27.6437 419.844 28.7957 419.825 29.9669 419.825 30.3655 419.825 30.8239 419.756 31.3322L419.696 31.96 410.149 31.96C410.037 33.4819 410.355 35.0044 411.065 36.3549 411.613 37.2429 412.594 37.771 413.637 37.7401 414.537 37.7717 415.426 37.5321 416.188 37.0525 416.964 36.5102 417.639 35.8355 418.181 35.0594L419.178 35.7868C418.577 36.724 417.794 37.5306 416.875 38.1587 415.774 38.8617 414.484 39.2096 413.178 39.1553 411.823 39.1902 410.486 38.8412 409.321 38.1487ZM415.57 30.5349C415.672 29.088 415.433 27.6374 414.872 26.2995 414.507 25.5314 413.73 25.0453 412.879 25.0538 412.022 25.0599 411.245 25.5608 410.886 26.3394 410.294 27.6547 410.037 29.0961 410.139 30.5349Z" fill="#FFFFFF" fill-rule="nonzero" fill-opacity="1" transform="matrix(1.00218 0 0 1 74.8284 49.3212)"/><path d="M422.994 37.8697C422.632 37.5089 422.407 37.0332 422.357 36.5243 422.265 35.7205 422.225 34.9116 422.237 34.1026L423.343 34.1026C423.483 35.1005 423.941 36.0266 424.649 36.7436 425.415 37.4446 426.433 37.8043 427.469 37.7401 429.582 37.7401 430.638 37.0226 430.638 35.5776 430.641 35.0408 430.39 34.5343 429.96 34.2123 429.283 33.7319 428.554 33.3275 427.788 33.0064L426.134 32.3088C425.005 31.8675 423.972 31.2109 423.094 30.3755 421.687 28.8884 421.751 26.542 423.238 25.1346 423.394 24.987 423.563 24.8533 423.742 24.7349 425.051 23.9398 426.567 23.5513 428.097 23.6187 430.578 23.6187 432.272 24.0572 433.209 24.9242 433.569 25.282 433.791 25.7547 433.837 26.2596 433.939 27.0693 433.982 27.8853 433.967 28.7012L432.86 28.7012C432.71 27.6956 432.238 26.7657 431.515 26.0504 430.749 25.3503 429.731 24.9908 428.695 25.0538 427.982 25.0051 427.274 25.2138 426.702 25.6418 426.26 26.0392 426.019 26.6129 426.044 27.2064 426.03 27.7032 426.229 28.1822 426.592 28.5219 427.102 28.9445 427.678 29.2811 428.296 29.5184L430.19 30.3057C431.425 30.7655 432.568 31.4403 433.568 32.2989 434.987 33.7672 434.947 36.1078 433.479 37.5268 433.276 37.7225 433.052 37.8943 432.811 38.0391 431.37 38.8295 429.739 39.2087 428.097 39.1353 425.625 39.1553 423.925 38.7334 422.994 37.8697Z" fill="#FFFFFF" fill-rule="nonzero" fill-opacity="1" transform="matrix(1.00218 0 0 1 74.8284 49.3212)"/><path d="M446.513 36.9927C445.305 35.3827 444.692 33.4033 444.779 31.392 444.694 29.3762 445.318 27.3942 446.543 25.7912 447.794 24.3093 449.67 23.5041 451.606 23.6187 452.442 23.6333 453.268 23.7953 454.048 24.0971 454.352 24.2404 454.648 24.4 454.935 24.5754L454.935 22.0342C454.985 21.2121 454.831 20.3904 454.486 19.6424 454.088 19.0704 453.403 18.7701 452.712 18.8651L452.443 18.8651 452.443 17.9383 456.25 17.9383C456.855 17.8976 457.46 18.0289 457.994 18.317 458.425 18.6109 458.731 19.0551 458.851 19.5627 459.048 20.3779 459.135 21.2158 459.11 22.0541L459.11 38.8663 456.409 38.8663 455.303 37.4412 455.144 37.4412C454.903 37.7871 454.603 38.0875 454.257 38.3281 453.462 38.9219 452.488 39.2245 451.496 39.1852 449.58 39.2967 447.726 38.4811 446.513 36.9927ZM454.207 36.7236C454.495 36.4088 454.74 36.0569 454.935 35.6772L454.935 26.0005C454.697 25.8141 454.439 25.6538 454.167 25.5222 453.564 25.2273 452.905 25.0675 452.234 25.0538 450.121 25.0538 449.065 27.1665 449.065 31.392 449.001 32.9719 449.244 34.5491 449.782 36.036 450.083 37.05 451.017 37.744 452.074 37.7401 452.898 37.7232 453.675 37.3529 454.207 36.7236Z" fill="#FFFFFF" fill-rule="nonzero" fill-opacity="1" transform="matrix(1.00218 0 0 1 74.8284 49.3212)"/><path d="M462.479 25.0139C463.176 24.5539 463.792 23.9814 464.302 23.3198 464.813 22.6772 465.088 21.8785 465.08 21.0575L464.611 21.1472C464.081 21.1822 463.561 20.9943 463.176 20.629 462.828 20.2417 462.646 19.7339 462.668 19.2139 462.646 18.6939 462.828 18.186 463.176 17.7987 463.561 17.4335 464.081 17.2456 464.611 17.2805 465.211 17.2555 465.785 17.5276 466.146 18.008 466.521 18.5108 466.718 19.1247 466.704 19.752 466.725 20.9079 466.432 22.0479 465.857 23.0507 465.142 24.1607 464.184 25.0943 463.057 25.7813Z" fill="#FFFFFF" fill-rule="nonzero" fill-opacity="1" transform="matrix(1.00218 0 0 1 74.8284 49.3212)"/><path d="M470.252 22.0342C470.302 21.2121 470.148 20.3904 469.803 19.6424 469.405 19.0704 468.72 18.7701 468.029 18.8651L467.711 18.8651 467.711 17.9383 471.517 17.9383C472.123 17.8976 472.727 18.0289 473.261 18.317 473.695 18.608 474.002 19.0535 474.118 19.5627 474.316 20.3779 474.403 21.2158 474.378 22.0541L474.378 24.8445C474.697 24.6239 475.029 24.4241 475.374 24.2466 476.156 23.8602 477.014 23.6526 477.886 23.6387 479.413 23.5738 480.918 24.0229 482.161 24.9143 483.317 25.7912 483.895 27.2861 483.895 29.3988L483.895 38.8663 479.769 38.8663 479.769 29.5882C479.863 28.4209 479.58 27.2542 478.962 26.2596 478.49 25.5963 477.723 25.2056 476.909 25.2132 476.267 25.2359 475.644 25.4322 475.105 25.7813 474.844 25.9337 474.6 26.1141 474.378 26.3194L474.378 38.8663 470.252 38.8663Z" fill="#FFFFFF" fill-rule="nonzero" fill-opacity="1" transform="matrix(1.00218 0 0 1 74.8284 49.3212)"/><path d="M490.313 38.1288C489.181 37.4704 488.261 36.5022 487.662 35.3384 486.442 32.8488 486.442 29.9351 487.662 27.4456 488.266 26.2852 489.185 25.3183 490.313 24.6552 492.833 23.2723 495.885 23.2723 498.405 24.6552 499.531 25.3168 500.447 26.2844 501.046 27.4456 502.281 29.9315 502.281 32.8524 501.046 35.3384 500.45 36.5015 499.534 37.4698 498.405 38.1288 495.885 39.5116 492.833 39.5116 490.313 38.1288ZM489.755 22.1837 492.296 18.1974 496.422 18.1974 498.953 22.1837 497.05 22.1837 494.359 19.6524 491.658 22.1837ZM496.83 35.9862C497.457 34.5348 497.749 32.9615 497.687 31.382 497.751 29.8057 497.458 28.2353 496.83 26.7878 496.381 25.4118 494.901 24.6608 493.525 25.1102 492.73 25.3698 492.107 25.9931 491.847 26.7878 491.215 28.2339 490.922 29.8053 490.99 31.382 490.923 32.9619 491.216 34.5363 491.847 35.9862 492.297 37.3621 493.777 38.1132 495.153 37.6638 495.948 37.4041 496.571 36.7809 496.83 35.9862Z" fill="#FFFFFF" fill-rule="nonzero" fill-opacity="1" transform="matrix(1.00218 0 0 1 74.8284 49.3212)"/><path d="M506.886 37.9793C506.028 37.0441 505.592 35.7973 505.68 34.5312L505.68 25.3627 503.776 25.3627 503.776 23.9177 505.68 23.9177 505.68 21.0874 507.254 19.184 509.796 19.184 509.796 23.9177 513.284 23.9177 513.284 25.3428 509.796 25.3428 509.796 34.7006C509.725 35.51 509.866 36.3238 510.204 37.0625 510.464 37.4923 510.939 37.7449 511.44 37.7202 512.055 37.7157 512.662 37.5726 513.214 37.3016 513.468 37.1696 513.714 37.0232 513.951 36.8632L514.39 37.7501C514.078 38.011 513.745 38.2444 513.393 38.4477 512.42 38.9344 511.342 39.174 510.254 39.1453 509.021 39.2213 507.808 38.8015 506.886 37.9793Z" fill="#FFFFFF" fill-rule="nonzero" fill-opacity="1" transform="matrix(1.00218 0 0 1 74.8284 49.3212)"/><path d="M518.964 38.1487C517.876 37.4766 516.993 36.5182 516.413 35.3783 515.797 34.1409 515.486 32.7741 515.506 31.392 515.468 29.9346 515.779 28.4892 516.413 27.1765 516.967 26.0687 517.833 25.1473 518.904 24.5256 520 23.914 521.237 23.6012 522.492 23.6187 523.721 23.6025 524.936 23.8756 526.04 24.416 527.064 24.9177 527.933 25.6895 528.551 26.6483 529.169 27.6437 529.487 28.7957 529.468 29.9669 529.468 30.3655 529.468 30.8239 529.398 31.3322L529.338 31.96 519.791 31.96C519.68 33.4819 519.998 35.0044 520.708 36.3549 521.256 37.2429 522.236 37.771 523.279 37.7401 524.179 37.7717 525.068 37.5321 525.831 37.0525 526.607 36.5102 527.281 35.8355 527.824 35.0594L528.82 35.7868C528.22 36.724 527.437 37.5306 526.518 38.1587 525.417 38.8617 524.126 39.2096 522.821 39.1553 521.466 39.1902 520.129 38.8412 518.964 38.1487ZM525.193 30.5349C525.294 29.088 525.056 27.6374 524.495 26.2995 524.13 25.5314 523.352 25.0453 522.502 25.0538 521.645 25.0599 520.868 25.5608 520.509 26.3394 519.917 27.6547 519.66 29.0961 519.761 30.5349Z" fill="#FFFFFF" fill-rule="nonzero" fill-opacity="1" transform="matrix(1.00218 0 0 1 74.8284 49.3212)"/><path d="M302.659 96.1093C300.824 95.6421 299.109 94.7931 297.626 93.6179 296.415 92.7418 295.679 91.3543 295.633 89.8608L295.633 82.8848 297.297 82.8848C297.882 86.9109 299.124 89.8143 301.024 91.5948 302.918 93.3687 305.568 94.2557 308.997 94.2557 310.925 94.3602 312.836 93.8432 314.448 92.7807 315.784 91.7823 316.533 90.1812 316.441 88.5154 316.47 87.0482 315.943 85.6244 314.966 84.5291 313.596 83.1189 312.041 81.9018 310.342 80.9116L303.057 76.5267C300.852 75.3645 298.927 73.7354 297.417 71.7531 296.278 70.0361 295.691 68.0127 295.732 65.953 295.63 63.0433 296.973 60.2712 299.32 58.5485 301.705 56.7215 304.931 55.808 308.997 55.808 311.159 55.8012 313.312 56.093 315.395 56.675 317.213 57.1392 318.911 57.9851 320.378 59.1564 321.593 60.0325 322.33 61.4257 322.371 62.9235L322.371 69.8496 320.716 69.8496C320.052 65.8235 318.81 62.9201 316.989 61.1396 314.998 59.301 312.351 58.3419 309.644 58.4788 307.829 58.3758 306.035 58.9196 304.582 60.0135 303.332 61.0438 302.639 62.6009 302.708 64.219 302.661 65.638 303.186 67.0165 304.163 68.0458 305.575 69.38 307.157 70.5225 308.867 71.4442L316.162 75.7394C318.421 76.9403 320.446 78.5369 322.141 80.4531 323.344 82.0251 323.96 83.9668 323.885 85.9443 324.01 89.1165 322.559 92.1452 320.009 94.0364 317.418 95.9897 313.764 96.9663 309.047 96.9663 306.888 96.9702 304.739 96.6819 302.658 96.1093Z" fill="#FFFFFF" fill-rule="nonzero" fill-opacity="1" transform="matrix(1.00218 0 0 1 74.8284 49.3212)"/><path d="M331.738 64.5678C331.839 63.0307 331.555 61.4928 330.911 60.0932 330.363 59.0966 329.257 58.6482 327.593 58.6482L327.005 58.6482 327.005 56.8643 353.125 56.8643C356.487 56.8643 358.164 58.4455 358.158 61.608L358.158 66.6407 356.384 66.6407C356.384 64.1891 355.756 62.3953 354.52 61.2492 352.954 60.0025 350.976 59.3906 348.979 59.5351L339.442 59.5351 339.442 74.3442 354.839 74.3442 354.839 77.005 339.442 77.005 339.442 93.289 349.567 93.289C351.552 93.3633 353.514 92.8391 355.198 91.7842 356.936 90.4488 358.235 88.6229 358.925 86.5422L360.529 87.1302 358.765 91.814C358.4 92.9858 357.773 94.0593 356.932 94.9532 355.993 95.6956 354.806 96.052 353.613 95.9498L331.689 95.9498Z" fill="#FFFFFF" fill-rule="nonzero" fill-opacity="1" transform="matrix(1.00218 0 0 1 74.8284 49.3212)"/><path d="M372.877 94.5048C369.988 92.8044 367.652 90.3058 366.15 87.3096 364.578 84.1053 363.789 80.5736 363.848 77.005 363.803 73.2477 364.675 69.536 366.389 66.1922 367.978 63.0455 370.389 60.3871 373.365 58.4987 376.348 56.6231 379.807 55.6442 383.331 55.6784 386.288 55.597 389.235 56.0494 392.031 57.0138 394.069 57.7088 395.901 58.9008 397.363 60.4819 398.106 61.4631 398.559 62.6339 398.668 63.8602 398.852 65.7279 398.932 67.6044 398.907 69.4809L397.123 69.4809C396.633 66.3546 395.184 63.4576 392.978 61.1894 390.829 59.2444 388 58.224 385.105 58.3492 381.432 58.1922 377.899 59.7722 375.568 62.6145 373.236 65.4581 372.073 70.2549 372.08 77.005 372.08 82.0211 373.143 86.1867 375.269 89.502 377.395 92.8173 380.673 94.4782 385.105 94.4849 387.801 94.5052 390.446 93.7436 392.719 92.2924 395.113 90.7404 397.044 88.5715 398.309 86.014L400.382 87.6185C398.793 90.6145 396.42 93.1223 393.516 94.8735 390.374 96.4986 386.866 97.2847 383.331 97.1557 379.67 97.2378 376.056 96.3214 372.877 94.5048Z" fill="#FFFFFF" fill-rule="nonzero" fill-opacity="1" transform="matrix(1.00218 0 0 1 74.8284 49.3212)"/><path d="M429.113 94.6742C426.843 92.8127 424.952 90.5324 423.543 87.9573L417.623 78.0713 415.251 78.0713 415.251 96.0096 407.488 96.0096 407.488 64.5678C407.588 63.0307 407.304 61.4928 406.661 60.0932 406.113 59.0966 405.006 58.6482 403.342 58.6482L402.754 58.6482 402.754 56.8643 419.098 56.8643C422.911 56.8067 426.691 57.5751 430.18 59.1166 433.448 60.6181 435.086 63.5015 435.093 67.7668 435.093 72.7031 431.894 75.9785 425.496 77.593L431.714 87.9573C434.046 91.8705 436.495 94.0431 439.059 94.4749L439.059 95.9598C438.51 96.1749 437.933 96.3124 437.345 96.3684 436.58 96.483 435.807 96.543 435.033 96.5478 432.909 96.578 430.833 95.9208 429.113 94.6742ZM418.809 75.7394C420.873 75.7893 422.883 75.0801 424.459 73.7462 426.021 72.4175 426.801 70.3346 426.801 67.4977 426.801 64.6608 426.047 62.578 424.539 61.2492 423.052 59.9376 421.13 59.227 419.148 59.2561 418.254 59.2313 417.361 59.3115 416.487 59.4953L415.301 59.6747 415.301 75.7394Z" fill="#FFFFFF" fill-rule="nonzero" fill-opacity="1" transform="matrix(1.00218 0 0 1 74.8284 49.3212)"/><path d="M443.972 64.5678C444.073 63.0307 443.788 61.4928 443.145 60.0932 442.597 59.0966 441.491 58.6482 439.826 58.6482L439.239 58.6482 439.239 56.8643 465.398 56.8643C468.76 56.8643 470.438 58.4455 470.431 61.608L470.431 66.6407 468.657 66.6407C468.657 64.1891 468.033 62.392 466.784 61.2492 465.224 59.9978 463.247 59.3852 461.253 59.5351L451.716 59.5351 451.716 74.3442 467.113 74.3442 467.113 77.005 451.676 77.005 451.676 93.289 461.801 93.289C463.773 93.3553 465.72 92.8313 467.392 91.7842 469.13 90.4488 470.429 88.6229 471.119 86.5422L472.723 87.1302 470.999 91.814C470.634 92.9858 470.007 94.0593 469.166 94.9532 468.226 95.6956 467.04 96.052 465.847 95.9498L443.922 95.9498ZM455.821 54.2035 449.543 45.912 456.589 45.912 459.08 54.2035Z" fill="#FFFFFF" fill-rule="nonzero" fill-opacity="1" transform="matrix(1.00218 0 0 1 74.8284 49.3212)"/><path d="M487.622 59.5351 483.416 59.5351C481.578 59.4062 479.762 59.9997 478.354 61.1894 477.191 62.2923 476.61 64.1094 476.61 66.6407L474.836 66.6407 474.836 61.608C474.836 58.4455 476.497 56.8643 479.819 56.8643L507.653 56.8643 507.653 59.5351 495.296 59.5351 495.296 95.9598 487.622 95.9598Z" fill="#FFFFFF" fill-rule="nonzero" fill-opacity="1" transform="matrix(1.00218 0 0 1 74.8284 49.3212)"/><path d="M513.563 64.5678C513.663 63.0307 513.379 61.4928 512.736 60.0932 512.188 59.0966 511.081 58.6482 509.417 58.6482L508.829 58.6482 508.829 56.8643 534.949 56.8643C538.311 56.8643 539.989 58.4455 539.982 61.608L539.982 66.6407 538.208 66.6407C538.208 64.1891 537.58 62.3953 536.344 61.2492 534.778 60.0025 532.8 59.3906 530.803 59.5351L521.266 59.5351 521.266 74.3442 536.663 74.3442 536.663 77.005 521.266 77.005 521.266 93.289 531.391 93.289C533.377 93.3633 535.339 92.8391 537.022 91.7842 538.761 90.4488 540.059 88.6229 540.749 86.5422L542.354 87.1302 540.63 91.814C540.264 92.9858 539.637 94.0593 538.796 94.9532 537.857 95.6956 536.67 96.052 535.477 95.9498L513.553 95.9498Z" fill="#FFFFFF" fill-rule="nonzero" fill-opacity="1" transform="matrix(1.00218 0 0 1 74.8284 49.3212)"/><path d="M588.565 68.584C586.067 65.4149 581.937 62.1461 576.177 58.7777L561.069 49.8285C557.503 47.9087 554.206 45.5262 551.263 42.7429 549.233 40.5968 548.155 37.7222 548.273 34.7703 548.126 31.4057 549.565 28.1666 552.16 26.0205 554.751 23.8878 558.262 22.8215 562.694 22.8215 569.112 22.8215 574.207 24.6684 577.981 28.3624 581.755 32.0564 584.343 38.0956 585.744 46.4801L589.202 46.4801 589.202 32.0298C589.202 29.0401 587.847 26.4689 585.136 24.2067 582.047 21.7582 578.474 19.992 574.653 19.0245 570.316 17.8284 565.837 17.2283 561.338 17.2407 552.828 17.2407 546.094 19.1342 541.138 22.9211 536.259 26.5087 533.469 32.2759 533.684 38.3281 533.577 42.6111 534.788 46.8236 537.152 50.3966 539.497 53.8514 543.423 57.1733 548.931 60.3623L564.059 69.5008C567.591 71.5609 570.827 74.0921 573.676 77.0249 575.73 79.3259 576.831 82.3226 576.755 85.4061 576.94 88.8834 575.364 92.2206 572.56 94.2856 569.769 96.3385 556.316 101.082 551.552 101.082L244.758 101.082 244.758 102.388 560.83 102.388C570.626 102.388 578.898 100.853 584.25 96.8069 589.601 92.7608 592.322 87.1302 592.322 79.9848 592.432 75.8634 591.104 71.8322 588.565 68.584Z" fill="#000000" fill-rule="nonzero" fill-opacity="1" transform="matrix(1.00218 0 0 1 74.8284 49.3212)"/></g></g></g></svg>